%TF.GenerationSoftware,KiCad,Pcbnew,7.0.1*%
%TF.CreationDate,2025-05-26T15:04:13+02:00*%
%TF.ProjectId,federkontaktplatine,66656465-726b-46f6-9e74-616b74706c61,rev?*%
%TF.SameCoordinates,Original*%
%TF.FileFunction,Legend,Top*%
%TF.FilePolarity,Positive*%
%FSLAX46Y46*%
G04 Gerber Fmt 4.6, Leading zero omitted, Abs format (unit mm)*
G04 Created by KiCad (PCBNEW 7.0.1) date 2025-05-26 15:04:13*
%MOMM*%
%LPD*%
G01*
G04 APERTURE LIST*
%ADD10C,0.150000*%
%ADD11C,0.100000*%
%ADD12C,0.120000*%
G04 APERTURE END LIST*
D10*
%TO.C,H5*%
X42738095Y-135912619D02*
X42738095Y-134912619D01*
X42738095Y-135388809D02*
X43309523Y-135388809D01*
X43309523Y-135912619D02*
X43309523Y-134912619D01*
X44261904Y-134912619D02*
X43785714Y-134912619D01*
X43785714Y-134912619D02*
X43738095Y-135388809D01*
X43738095Y-135388809D02*
X43785714Y-135341190D01*
X43785714Y-135341190D02*
X43880952Y-135293571D01*
X43880952Y-135293571D02*
X44119047Y-135293571D01*
X44119047Y-135293571D02*
X44214285Y-135341190D01*
X44214285Y-135341190D02*
X44261904Y-135388809D01*
X44261904Y-135388809D02*
X44309523Y-135484047D01*
X44309523Y-135484047D02*
X44309523Y-135722142D01*
X44309523Y-135722142D02*
X44261904Y-135817380D01*
X44261904Y-135817380D02*
X44214285Y-135865000D01*
X44214285Y-135865000D02*
X44119047Y-135912619D01*
X44119047Y-135912619D02*
X43880952Y-135912619D01*
X43880952Y-135912619D02*
X43785714Y-135865000D01*
X43785714Y-135865000D02*
X43738095Y-135817380D01*
%TO.C,H12*%
X251261905Y-97162619D02*
X251261905Y-96162619D01*
X251261905Y-96638809D02*
X251833333Y-96638809D01*
X251833333Y-97162619D02*
X251833333Y-96162619D01*
X252833333Y-97162619D02*
X252261905Y-97162619D01*
X252547619Y-97162619D02*
X252547619Y-96162619D01*
X252547619Y-96162619D02*
X252452381Y-96305476D01*
X252452381Y-96305476D02*
X252357143Y-96400714D01*
X252357143Y-96400714D02*
X252261905Y-96448333D01*
X253214286Y-96257857D02*
X253261905Y-96210238D01*
X253261905Y-96210238D02*
X253357143Y-96162619D01*
X253357143Y-96162619D02*
X253595238Y-96162619D01*
X253595238Y-96162619D02*
X253690476Y-96210238D01*
X253690476Y-96210238D02*
X253738095Y-96257857D01*
X253738095Y-96257857D02*
X253785714Y-96353095D01*
X253785714Y-96353095D02*
X253785714Y-96448333D01*
X253785714Y-96448333D02*
X253738095Y-96591190D01*
X253738095Y-96591190D02*
X253166667Y-97162619D01*
X253166667Y-97162619D02*
X253785714Y-97162619D01*
%TO.C,H9*%
X251738095Y-135912619D02*
X251738095Y-134912619D01*
X251738095Y-135388809D02*
X252309523Y-135388809D01*
X252309523Y-135912619D02*
X252309523Y-134912619D01*
X252833333Y-135912619D02*
X253023809Y-135912619D01*
X253023809Y-135912619D02*
X253119047Y-135865000D01*
X253119047Y-135865000D02*
X253166666Y-135817380D01*
X253166666Y-135817380D02*
X253261904Y-135674523D01*
X253261904Y-135674523D02*
X253309523Y-135484047D01*
X253309523Y-135484047D02*
X253309523Y-135103095D01*
X253309523Y-135103095D02*
X253261904Y-135007857D01*
X253261904Y-135007857D02*
X253214285Y-134960238D01*
X253214285Y-134960238D02*
X253119047Y-134912619D01*
X253119047Y-134912619D02*
X252928571Y-134912619D01*
X252928571Y-134912619D02*
X252833333Y-134960238D01*
X252833333Y-134960238D02*
X252785714Y-135007857D01*
X252785714Y-135007857D02*
X252738095Y-135103095D01*
X252738095Y-135103095D02*
X252738095Y-135341190D01*
X252738095Y-135341190D02*
X252785714Y-135436428D01*
X252785714Y-135436428D02*
X252833333Y-135484047D01*
X252833333Y-135484047D02*
X252928571Y-135531666D01*
X252928571Y-135531666D02*
X253119047Y-135531666D01*
X253119047Y-135531666D02*
X253214285Y-135484047D01*
X253214285Y-135484047D02*
X253261904Y-135436428D01*
X253261904Y-135436428D02*
X253309523Y-135341190D01*
%TO.C,H6*%
X42738095Y-96662619D02*
X42738095Y-95662619D01*
X42738095Y-96138809D02*
X43309523Y-96138809D01*
X43309523Y-96662619D02*
X43309523Y-95662619D01*
X44214285Y-95662619D02*
X44023809Y-95662619D01*
X44023809Y-95662619D02*
X43928571Y-95710238D01*
X43928571Y-95710238D02*
X43880952Y-95757857D01*
X43880952Y-95757857D02*
X43785714Y-95900714D01*
X43785714Y-95900714D02*
X43738095Y-96091190D01*
X43738095Y-96091190D02*
X43738095Y-96472142D01*
X43738095Y-96472142D02*
X43785714Y-96567380D01*
X43785714Y-96567380D02*
X43833333Y-96615000D01*
X43833333Y-96615000D02*
X43928571Y-96662619D01*
X43928571Y-96662619D02*
X44119047Y-96662619D01*
X44119047Y-96662619D02*
X44214285Y-96615000D01*
X44214285Y-96615000D02*
X44261904Y-96567380D01*
X44261904Y-96567380D02*
X44309523Y-96472142D01*
X44309523Y-96472142D02*
X44309523Y-96234047D01*
X44309523Y-96234047D02*
X44261904Y-96138809D01*
X44261904Y-96138809D02*
X44214285Y-96091190D01*
X44214285Y-96091190D02*
X44119047Y-96043571D01*
X44119047Y-96043571D02*
X43928571Y-96043571D01*
X43928571Y-96043571D02*
X43833333Y-96091190D01*
X43833333Y-96091190D02*
X43785714Y-96138809D01*
X43785714Y-96138809D02*
X43738095Y-96234047D01*
%TO.C,H4*%
X42738095Y-55912619D02*
X42738095Y-54912619D01*
X42738095Y-55388809D02*
X43309523Y-55388809D01*
X43309523Y-55912619D02*
X43309523Y-54912619D01*
X44214285Y-55245952D02*
X44214285Y-55912619D01*
X43976190Y-54865000D02*
X43738095Y-55579285D01*
X43738095Y-55579285D02*
X44357142Y-55579285D01*
%TO.C,H10*%
X146761905Y-55162619D02*
X146761905Y-54162619D01*
X146761905Y-54638809D02*
X147333333Y-54638809D01*
X147333333Y-55162619D02*
X147333333Y-54162619D01*
X148333333Y-55162619D02*
X147761905Y-55162619D01*
X148047619Y-55162619D02*
X148047619Y-54162619D01*
X148047619Y-54162619D02*
X147952381Y-54305476D01*
X147952381Y-54305476D02*
X147857143Y-54400714D01*
X147857143Y-54400714D02*
X147761905Y-54448333D01*
X148952381Y-54162619D02*
X149047619Y-54162619D01*
X149047619Y-54162619D02*
X149142857Y-54210238D01*
X149142857Y-54210238D02*
X149190476Y-54257857D01*
X149190476Y-54257857D02*
X149238095Y-54353095D01*
X149238095Y-54353095D02*
X149285714Y-54543571D01*
X149285714Y-54543571D02*
X149285714Y-54781666D01*
X149285714Y-54781666D02*
X149238095Y-54972142D01*
X149238095Y-54972142D02*
X149190476Y-55067380D01*
X149190476Y-55067380D02*
X149142857Y-55115000D01*
X149142857Y-55115000D02*
X149047619Y-55162619D01*
X149047619Y-55162619D02*
X148952381Y-55162619D01*
X148952381Y-55162619D02*
X148857143Y-55115000D01*
X148857143Y-55115000D02*
X148809524Y-55067380D01*
X148809524Y-55067380D02*
X148761905Y-54972142D01*
X148761905Y-54972142D02*
X148714286Y-54781666D01*
X148714286Y-54781666D02*
X148714286Y-54543571D01*
X148714286Y-54543571D02*
X148761905Y-54353095D01*
X148761905Y-54353095D02*
X148809524Y-54257857D01*
X148809524Y-54257857D02*
X148857143Y-54210238D01*
X148857143Y-54210238D02*
X148952381Y-54162619D01*
%TO.C,H7*%
X147238095Y-141662619D02*
X147238095Y-140662619D01*
X147238095Y-141138809D02*
X147809523Y-141138809D01*
X147809523Y-141662619D02*
X147809523Y-140662619D01*
X148190476Y-140662619D02*
X148857142Y-140662619D01*
X148857142Y-140662619D02*
X148428571Y-141662619D01*
%TO.C,H8*%
X251738095Y-55912619D02*
X251738095Y-54912619D01*
X251738095Y-55388809D02*
X252309523Y-55388809D01*
X252309523Y-55912619D02*
X252309523Y-54912619D01*
X252928571Y-55341190D02*
X252833333Y-55293571D01*
X252833333Y-55293571D02*
X252785714Y-55245952D01*
X252785714Y-55245952D02*
X252738095Y-55150714D01*
X252738095Y-55150714D02*
X252738095Y-55103095D01*
X252738095Y-55103095D02*
X252785714Y-55007857D01*
X252785714Y-55007857D02*
X252833333Y-54960238D01*
X252833333Y-54960238D02*
X252928571Y-54912619D01*
X252928571Y-54912619D02*
X253119047Y-54912619D01*
X253119047Y-54912619D02*
X253214285Y-54960238D01*
X253214285Y-54960238D02*
X253261904Y-55007857D01*
X253261904Y-55007857D02*
X253309523Y-55103095D01*
X253309523Y-55103095D02*
X253309523Y-55150714D01*
X253309523Y-55150714D02*
X253261904Y-55245952D01*
X253261904Y-55245952D02*
X253214285Y-55293571D01*
X253214285Y-55293571D02*
X253119047Y-55341190D01*
X253119047Y-55341190D02*
X252928571Y-55341190D01*
X252928571Y-55341190D02*
X252833333Y-55388809D01*
X252833333Y-55388809D02*
X252785714Y-55436428D01*
X252785714Y-55436428D02*
X252738095Y-55531666D01*
X252738095Y-55531666D02*
X252738095Y-55722142D01*
X252738095Y-55722142D02*
X252785714Y-55817380D01*
X252785714Y-55817380D02*
X252833333Y-55865000D01*
X252833333Y-55865000D02*
X252928571Y-55912619D01*
X252928571Y-55912619D02*
X253119047Y-55912619D01*
X253119047Y-55912619D02*
X253214285Y-55865000D01*
X253214285Y-55865000D02*
X253261904Y-55817380D01*
X253261904Y-55817380D02*
X253309523Y-55722142D01*
X253309523Y-55722142D02*
X253309523Y-55531666D01*
X253309523Y-55531666D02*
X253261904Y-55436428D01*
X253261904Y-55436428D02*
X253214285Y-55388809D01*
X253214285Y-55388809D02*
X253119047Y-55341190D01*
D11*
%TO.C,TP11*%
X189261905Y-76462619D02*
X189833333Y-76462619D01*
X189547619Y-77462619D02*
X189547619Y-76462619D01*
X190166667Y-77462619D02*
X190166667Y-76462619D01*
X190166667Y-76462619D02*
X190547619Y-76462619D01*
X190547619Y-76462619D02*
X190642857Y-76510238D01*
X190642857Y-76510238D02*
X190690476Y-76557857D01*
X190690476Y-76557857D02*
X190738095Y-76653095D01*
X190738095Y-76653095D02*
X190738095Y-76795952D01*
X190738095Y-76795952D02*
X190690476Y-76891190D01*
X190690476Y-76891190D02*
X190642857Y-76938809D01*
X190642857Y-76938809D02*
X190547619Y-76986428D01*
X190547619Y-76986428D02*
X190166667Y-76986428D01*
X191690476Y-77462619D02*
X191119048Y-77462619D01*
X191404762Y-77462619D02*
X191404762Y-76462619D01*
X191404762Y-76462619D02*
X191309524Y-76605476D01*
X191309524Y-76605476D02*
X191214286Y-76700714D01*
X191214286Y-76700714D02*
X191119048Y-76748333D01*
X192642857Y-77462619D02*
X192071429Y-77462619D01*
X192357143Y-77462619D02*
X192357143Y-76462619D01*
X192357143Y-76462619D02*
X192261905Y-76605476D01*
X192261905Y-76605476D02*
X192166667Y-76700714D01*
X192166667Y-76700714D02*
X192071429Y-76748333D01*
%TO.C,TP4*%
X103738095Y-76462619D02*
X104309523Y-76462619D01*
X104023809Y-77462619D02*
X104023809Y-76462619D01*
X104642857Y-77462619D02*
X104642857Y-76462619D01*
X104642857Y-76462619D02*
X105023809Y-76462619D01*
X105023809Y-76462619D02*
X105119047Y-76510238D01*
X105119047Y-76510238D02*
X105166666Y-76557857D01*
X105166666Y-76557857D02*
X105214285Y-76653095D01*
X105214285Y-76653095D02*
X105214285Y-76795952D01*
X105214285Y-76795952D02*
X105166666Y-76891190D01*
X105166666Y-76891190D02*
X105119047Y-76938809D01*
X105119047Y-76938809D02*
X105023809Y-76986428D01*
X105023809Y-76986428D02*
X104642857Y-76986428D01*
X106071428Y-76795952D02*
X106071428Y-77462619D01*
X105833333Y-76415000D02*
X105595238Y-77129285D01*
X105595238Y-77129285D02*
X106214285Y-77129285D01*
D10*
%TO.C,J1*%
X147666666Y-159462619D02*
X147666666Y-160176904D01*
X147666666Y-160176904D02*
X147619047Y-160319761D01*
X147619047Y-160319761D02*
X147523809Y-160415000D01*
X147523809Y-160415000D02*
X147380952Y-160462619D01*
X147380952Y-160462619D02*
X147285714Y-160462619D01*
X148666666Y-160462619D02*
X148095238Y-160462619D01*
X148380952Y-160462619D02*
X148380952Y-159462619D01*
X148380952Y-159462619D02*
X148285714Y-159605476D01*
X148285714Y-159605476D02*
X148190476Y-159700714D01*
X148190476Y-159700714D02*
X148095238Y-159748333D01*
D11*
%TO.C,TP8*%
X168238095Y-146462619D02*
X168809523Y-146462619D01*
X168523809Y-147462619D02*
X168523809Y-146462619D01*
X169142857Y-147462619D02*
X169142857Y-146462619D01*
X169142857Y-146462619D02*
X169523809Y-146462619D01*
X169523809Y-146462619D02*
X169619047Y-146510238D01*
X169619047Y-146510238D02*
X169666666Y-146557857D01*
X169666666Y-146557857D02*
X169714285Y-146653095D01*
X169714285Y-146653095D02*
X169714285Y-146795952D01*
X169714285Y-146795952D02*
X169666666Y-146891190D01*
X169666666Y-146891190D02*
X169619047Y-146938809D01*
X169619047Y-146938809D02*
X169523809Y-146986428D01*
X169523809Y-146986428D02*
X169142857Y-146986428D01*
X170285714Y-146891190D02*
X170190476Y-146843571D01*
X170190476Y-146843571D02*
X170142857Y-146795952D01*
X170142857Y-146795952D02*
X170095238Y-146700714D01*
X170095238Y-146700714D02*
X170095238Y-146653095D01*
X170095238Y-146653095D02*
X170142857Y-146557857D01*
X170142857Y-146557857D02*
X170190476Y-146510238D01*
X170190476Y-146510238D02*
X170285714Y-146462619D01*
X170285714Y-146462619D02*
X170476190Y-146462619D01*
X170476190Y-146462619D02*
X170571428Y-146510238D01*
X170571428Y-146510238D02*
X170619047Y-146557857D01*
X170619047Y-146557857D02*
X170666666Y-146653095D01*
X170666666Y-146653095D02*
X170666666Y-146700714D01*
X170666666Y-146700714D02*
X170619047Y-146795952D01*
X170619047Y-146795952D02*
X170571428Y-146843571D01*
X170571428Y-146843571D02*
X170476190Y-146891190D01*
X170476190Y-146891190D02*
X170285714Y-146891190D01*
X170285714Y-146891190D02*
X170190476Y-146938809D01*
X170190476Y-146938809D02*
X170142857Y-146986428D01*
X170142857Y-146986428D02*
X170095238Y-147081666D01*
X170095238Y-147081666D02*
X170095238Y-147272142D01*
X170095238Y-147272142D02*
X170142857Y-147367380D01*
X170142857Y-147367380D02*
X170190476Y-147415000D01*
X170190476Y-147415000D02*
X170285714Y-147462619D01*
X170285714Y-147462619D02*
X170476190Y-147462619D01*
X170476190Y-147462619D02*
X170571428Y-147415000D01*
X170571428Y-147415000D02*
X170619047Y-147367380D01*
X170619047Y-147367380D02*
X170666666Y-147272142D01*
X170666666Y-147272142D02*
X170666666Y-147081666D01*
X170666666Y-147081666D02*
X170619047Y-146986428D01*
X170619047Y-146986428D02*
X170571428Y-146938809D01*
X170571428Y-146938809D02*
X170476190Y-146891190D01*
%TO.C,TP5*%
X60738095Y-36462619D02*
X61309523Y-36462619D01*
X61023809Y-37462619D02*
X61023809Y-36462619D01*
X61642857Y-37462619D02*
X61642857Y-36462619D01*
X61642857Y-36462619D02*
X62023809Y-36462619D01*
X62023809Y-36462619D02*
X62119047Y-36510238D01*
X62119047Y-36510238D02*
X62166666Y-36557857D01*
X62166666Y-36557857D02*
X62214285Y-36653095D01*
X62214285Y-36653095D02*
X62214285Y-36795952D01*
X62214285Y-36795952D02*
X62166666Y-36891190D01*
X62166666Y-36891190D02*
X62119047Y-36938809D01*
X62119047Y-36938809D02*
X62023809Y-36986428D01*
X62023809Y-36986428D02*
X61642857Y-36986428D01*
X63119047Y-36462619D02*
X62642857Y-36462619D01*
X62642857Y-36462619D02*
X62595238Y-36938809D01*
X62595238Y-36938809D02*
X62642857Y-36891190D01*
X62642857Y-36891190D02*
X62738095Y-36843571D01*
X62738095Y-36843571D02*
X62976190Y-36843571D01*
X62976190Y-36843571D02*
X63071428Y-36891190D01*
X63071428Y-36891190D02*
X63119047Y-36938809D01*
X63119047Y-36938809D02*
X63166666Y-37034047D01*
X63166666Y-37034047D02*
X63166666Y-37272142D01*
X63166666Y-37272142D02*
X63119047Y-37367380D01*
X63119047Y-37367380D02*
X63071428Y-37415000D01*
X63071428Y-37415000D02*
X62976190Y-37462619D01*
X62976190Y-37462619D02*
X62738095Y-37462619D01*
X62738095Y-37462619D02*
X62642857Y-37415000D01*
X62642857Y-37415000D02*
X62595238Y-37367380D01*
%TO.C,TP10*%
X232261905Y-36462619D02*
X232833333Y-36462619D01*
X232547619Y-37462619D02*
X232547619Y-36462619D01*
X233166667Y-37462619D02*
X233166667Y-36462619D01*
X233166667Y-36462619D02*
X233547619Y-36462619D01*
X233547619Y-36462619D02*
X233642857Y-36510238D01*
X233642857Y-36510238D02*
X233690476Y-36557857D01*
X233690476Y-36557857D02*
X233738095Y-36653095D01*
X233738095Y-36653095D02*
X233738095Y-36795952D01*
X233738095Y-36795952D02*
X233690476Y-36891190D01*
X233690476Y-36891190D02*
X233642857Y-36938809D01*
X233642857Y-36938809D02*
X233547619Y-36986428D01*
X233547619Y-36986428D02*
X233166667Y-36986428D01*
X234690476Y-37462619D02*
X234119048Y-37462619D01*
X234404762Y-37462619D02*
X234404762Y-36462619D01*
X234404762Y-36462619D02*
X234309524Y-36605476D01*
X234309524Y-36605476D02*
X234214286Y-36700714D01*
X234214286Y-36700714D02*
X234119048Y-36748333D01*
X235309524Y-36462619D02*
X235404762Y-36462619D01*
X235404762Y-36462619D02*
X235500000Y-36510238D01*
X235500000Y-36510238D02*
X235547619Y-36557857D01*
X235547619Y-36557857D02*
X235595238Y-36653095D01*
X235595238Y-36653095D02*
X235642857Y-36843571D01*
X235642857Y-36843571D02*
X235642857Y-37081666D01*
X235642857Y-37081666D02*
X235595238Y-37272142D01*
X235595238Y-37272142D02*
X235547619Y-37367380D01*
X235547619Y-37367380D02*
X235500000Y-37415000D01*
X235500000Y-37415000D02*
X235404762Y-37462619D01*
X235404762Y-37462619D02*
X235309524Y-37462619D01*
X235309524Y-37462619D02*
X235214286Y-37415000D01*
X235214286Y-37415000D02*
X235166667Y-37367380D01*
X235166667Y-37367380D02*
X235119048Y-37272142D01*
X235119048Y-37272142D02*
X235071429Y-37081666D01*
X235071429Y-37081666D02*
X235071429Y-36843571D01*
X235071429Y-36843571D02*
X235119048Y-36653095D01*
X235119048Y-36653095D02*
X235166667Y-36557857D01*
X235166667Y-36557857D02*
X235214286Y-36510238D01*
X235214286Y-36510238D02*
X235309524Y-36462619D01*
%TO.C,TP3*%
X60738095Y-76462619D02*
X61309523Y-76462619D01*
X61023809Y-77462619D02*
X61023809Y-76462619D01*
X61642857Y-77462619D02*
X61642857Y-76462619D01*
X61642857Y-76462619D02*
X62023809Y-76462619D01*
X62023809Y-76462619D02*
X62119047Y-76510238D01*
X62119047Y-76510238D02*
X62166666Y-76557857D01*
X62166666Y-76557857D02*
X62214285Y-76653095D01*
X62214285Y-76653095D02*
X62214285Y-76795952D01*
X62214285Y-76795952D02*
X62166666Y-76891190D01*
X62166666Y-76891190D02*
X62119047Y-76938809D01*
X62119047Y-76938809D02*
X62023809Y-76986428D01*
X62023809Y-76986428D02*
X61642857Y-76986428D01*
X62547619Y-76462619D02*
X63166666Y-76462619D01*
X63166666Y-76462619D02*
X62833333Y-76843571D01*
X62833333Y-76843571D02*
X62976190Y-76843571D01*
X62976190Y-76843571D02*
X63071428Y-76891190D01*
X63071428Y-76891190D02*
X63119047Y-76938809D01*
X63119047Y-76938809D02*
X63166666Y-77034047D01*
X63166666Y-77034047D02*
X63166666Y-77272142D01*
X63166666Y-77272142D02*
X63119047Y-77367380D01*
X63119047Y-77367380D02*
X63071428Y-77415000D01*
X63071428Y-77415000D02*
X62976190Y-77462619D01*
X62976190Y-77462619D02*
X62690476Y-77462619D01*
X62690476Y-77462619D02*
X62595238Y-77415000D01*
X62595238Y-77415000D02*
X62547619Y-77367380D01*
%TO.C,TP14*%
X232261905Y-116462619D02*
X232833333Y-116462619D01*
X232547619Y-117462619D02*
X232547619Y-116462619D01*
X233166667Y-117462619D02*
X233166667Y-116462619D01*
X233166667Y-116462619D02*
X233547619Y-116462619D01*
X233547619Y-116462619D02*
X233642857Y-116510238D01*
X233642857Y-116510238D02*
X233690476Y-116557857D01*
X233690476Y-116557857D02*
X233738095Y-116653095D01*
X233738095Y-116653095D02*
X233738095Y-116795952D01*
X233738095Y-116795952D02*
X233690476Y-116891190D01*
X233690476Y-116891190D02*
X233642857Y-116938809D01*
X233642857Y-116938809D02*
X233547619Y-116986428D01*
X233547619Y-116986428D02*
X233166667Y-116986428D01*
X234690476Y-117462619D02*
X234119048Y-117462619D01*
X234404762Y-117462619D02*
X234404762Y-116462619D01*
X234404762Y-116462619D02*
X234309524Y-116605476D01*
X234309524Y-116605476D02*
X234214286Y-116700714D01*
X234214286Y-116700714D02*
X234119048Y-116748333D01*
X235547619Y-116795952D02*
X235547619Y-117462619D01*
X235309524Y-116415000D02*
X235071429Y-117129285D01*
X235071429Y-117129285D02*
X235690476Y-117129285D01*
%TO.C,TP7*%
X189738095Y-146712619D02*
X190309523Y-146712619D01*
X190023809Y-147712619D02*
X190023809Y-146712619D01*
X190642857Y-147712619D02*
X190642857Y-146712619D01*
X190642857Y-146712619D02*
X191023809Y-146712619D01*
X191023809Y-146712619D02*
X191119047Y-146760238D01*
X191119047Y-146760238D02*
X191166666Y-146807857D01*
X191166666Y-146807857D02*
X191214285Y-146903095D01*
X191214285Y-146903095D02*
X191214285Y-147045952D01*
X191214285Y-147045952D02*
X191166666Y-147141190D01*
X191166666Y-147141190D02*
X191119047Y-147188809D01*
X191119047Y-147188809D02*
X191023809Y-147236428D01*
X191023809Y-147236428D02*
X190642857Y-147236428D01*
X191547619Y-146712619D02*
X192214285Y-146712619D01*
X192214285Y-146712619D02*
X191785714Y-147712619D01*
%TO.C,TP1*%
X60738095Y-116462619D02*
X61309523Y-116462619D01*
X61023809Y-117462619D02*
X61023809Y-116462619D01*
X61642857Y-117462619D02*
X61642857Y-116462619D01*
X61642857Y-116462619D02*
X62023809Y-116462619D01*
X62023809Y-116462619D02*
X62119047Y-116510238D01*
X62119047Y-116510238D02*
X62166666Y-116557857D01*
X62166666Y-116557857D02*
X62214285Y-116653095D01*
X62214285Y-116653095D02*
X62214285Y-116795952D01*
X62214285Y-116795952D02*
X62166666Y-116891190D01*
X62166666Y-116891190D02*
X62119047Y-116938809D01*
X62119047Y-116938809D02*
X62023809Y-116986428D01*
X62023809Y-116986428D02*
X61642857Y-116986428D01*
X63166666Y-117462619D02*
X62595238Y-117462619D01*
X62880952Y-117462619D02*
X62880952Y-116462619D01*
X62880952Y-116462619D02*
X62785714Y-116605476D01*
X62785714Y-116605476D02*
X62690476Y-116700714D01*
X62690476Y-116700714D02*
X62595238Y-116748333D01*
%TO.C,TP12*%
X232261905Y-76462619D02*
X232833333Y-76462619D01*
X232547619Y-77462619D02*
X232547619Y-76462619D01*
X233166667Y-77462619D02*
X233166667Y-76462619D01*
X233166667Y-76462619D02*
X233547619Y-76462619D01*
X233547619Y-76462619D02*
X233642857Y-76510238D01*
X233642857Y-76510238D02*
X233690476Y-76557857D01*
X233690476Y-76557857D02*
X233738095Y-76653095D01*
X233738095Y-76653095D02*
X233738095Y-76795952D01*
X233738095Y-76795952D02*
X233690476Y-76891190D01*
X233690476Y-76891190D02*
X233642857Y-76938809D01*
X233642857Y-76938809D02*
X233547619Y-76986428D01*
X233547619Y-76986428D02*
X233166667Y-76986428D01*
X234690476Y-77462619D02*
X234119048Y-77462619D01*
X234404762Y-77462619D02*
X234404762Y-76462619D01*
X234404762Y-76462619D02*
X234309524Y-76605476D01*
X234309524Y-76605476D02*
X234214286Y-76700714D01*
X234214286Y-76700714D02*
X234119048Y-76748333D01*
X235071429Y-76557857D02*
X235119048Y-76510238D01*
X235119048Y-76510238D02*
X235214286Y-76462619D01*
X235214286Y-76462619D02*
X235452381Y-76462619D01*
X235452381Y-76462619D02*
X235547619Y-76510238D01*
X235547619Y-76510238D02*
X235595238Y-76557857D01*
X235595238Y-76557857D02*
X235642857Y-76653095D01*
X235642857Y-76653095D02*
X235642857Y-76748333D01*
X235642857Y-76748333D02*
X235595238Y-76891190D01*
X235595238Y-76891190D02*
X235023810Y-77462619D01*
X235023810Y-77462619D02*
X235642857Y-77462619D01*
%TO.C,TP13*%
X189261905Y-116462619D02*
X189833333Y-116462619D01*
X189547619Y-117462619D02*
X189547619Y-116462619D01*
X190166667Y-117462619D02*
X190166667Y-116462619D01*
X190166667Y-116462619D02*
X190547619Y-116462619D01*
X190547619Y-116462619D02*
X190642857Y-116510238D01*
X190642857Y-116510238D02*
X190690476Y-116557857D01*
X190690476Y-116557857D02*
X190738095Y-116653095D01*
X190738095Y-116653095D02*
X190738095Y-116795952D01*
X190738095Y-116795952D02*
X190690476Y-116891190D01*
X190690476Y-116891190D02*
X190642857Y-116938809D01*
X190642857Y-116938809D02*
X190547619Y-116986428D01*
X190547619Y-116986428D02*
X190166667Y-116986428D01*
X191690476Y-117462619D02*
X191119048Y-117462619D01*
X191404762Y-117462619D02*
X191404762Y-116462619D01*
X191404762Y-116462619D02*
X191309524Y-116605476D01*
X191309524Y-116605476D02*
X191214286Y-116700714D01*
X191214286Y-116700714D02*
X191119048Y-116748333D01*
X192023810Y-116462619D02*
X192642857Y-116462619D01*
X192642857Y-116462619D02*
X192309524Y-116843571D01*
X192309524Y-116843571D02*
X192452381Y-116843571D01*
X192452381Y-116843571D02*
X192547619Y-116891190D01*
X192547619Y-116891190D02*
X192595238Y-116938809D01*
X192595238Y-116938809D02*
X192642857Y-117034047D01*
X192642857Y-117034047D02*
X192642857Y-117272142D01*
X192642857Y-117272142D02*
X192595238Y-117367380D01*
X192595238Y-117367380D02*
X192547619Y-117415000D01*
X192547619Y-117415000D02*
X192452381Y-117462619D01*
X192452381Y-117462619D02*
X192166667Y-117462619D01*
X192166667Y-117462619D02*
X192071429Y-117415000D01*
X192071429Y-117415000D02*
X192023810Y-117367380D01*
%TO.C,TP2*%
X103738095Y-116462619D02*
X104309523Y-116462619D01*
X104023809Y-117462619D02*
X104023809Y-116462619D01*
X104642857Y-117462619D02*
X104642857Y-116462619D01*
X104642857Y-116462619D02*
X105023809Y-116462619D01*
X105023809Y-116462619D02*
X105119047Y-116510238D01*
X105119047Y-116510238D02*
X105166666Y-116557857D01*
X105166666Y-116557857D02*
X105214285Y-116653095D01*
X105214285Y-116653095D02*
X105214285Y-116795952D01*
X105214285Y-116795952D02*
X105166666Y-116891190D01*
X105166666Y-116891190D02*
X105119047Y-116938809D01*
X105119047Y-116938809D02*
X105023809Y-116986428D01*
X105023809Y-116986428D02*
X104642857Y-116986428D01*
X105595238Y-116557857D02*
X105642857Y-116510238D01*
X105642857Y-116510238D02*
X105738095Y-116462619D01*
X105738095Y-116462619D02*
X105976190Y-116462619D01*
X105976190Y-116462619D02*
X106071428Y-116510238D01*
X106071428Y-116510238D02*
X106119047Y-116557857D01*
X106119047Y-116557857D02*
X106166666Y-116653095D01*
X106166666Y-116653095D02*
X106166666Y-116748333D01*
X106166666Y-116748333D02*
X106119047Y-116891190D01*
X106119047Y-116891190D02*
X105547619Y-117462619D01*
X105547619Y-117462619D02*
X106166666Y-117462619D01*
%TO.C,TP6*%
X103738095Y-36462619D02*
X104309523Y-36462619D01*
X104023809Y-37462619D02*
X104023809Y-36462619D01*
X104642857Y-37462619D02*
X104642857Y-36462619D01*
X104642857Y-36462619D02*
X105023809Y-36462619D01*
X105023809Y-36462619D02*
X105119047Y-36510238D01*
X105119047Y-36510238D02*
X105166666Y-36557857D01*
X105166666Y-36557857D02*
X105214285Y-36653095D01*
X105214285Y-36653095D02*
X105214285Y-36795952D01*
X105214285Y-36795952D02*
X105166666Y-36891190D01*
X105166666Y-36891190D02*
X105119047Y-36938809D01*
X105119047Y-36938809D02*
X105023809Y-36986428D01*
X105023809Y-36986428D02*
X104642857Y-36986428D01*
X106071428Y-36462619D02*
X105880952Y-36462619D01*
X105880952Y-36462619D02*
X105785714Y-36510238D01*
X105785714Y-36510238D02*
X105738095Y-36557857D01*
X105738095Y-36557857D02*
X105642857Y-36700714D01*
X105642857Y-36700714D02*
X105595238Y-36891190D01*
X105595238Y-36891190D02*
X105595238Y-37272142D01*
X105595238Y-37272142D02*
X105642857Y-37367380D01*
X105642857Y-37367380D02*
X105690476Y-37415000D01*
X105690476Y-37415000D02*
X105785714Y-37462619D01*
X105785714Y-37462619D02*
X105976190Y-37462619D01*
X105976190Y-37462619D02*
X106071428Y-37415000D01*
X106071428Y-37415000D02*
X106119047Y-37367380D01*
X106119047Y-37367380D02*
X106166666Y-37272142D01*
X106166666Y-37272142D02*
X106166666Y-37034047D01*
X106166666Y-37034047D02*
X106119047Y-36938809D01*
X106119047Y-36938809D02*
X106071428Y-36891190D01*
X106071428Y-36891190D02*
X105976190Y-36843571D01*
X105976190Y-36843571D02*
X105785714Y-36843571D01*
X105785714Y-36843571D02*
X105690476Y-36891190D01*
X105690476Y-36891190D02*
X105642857Y-36938809D01*
X105642857Y-36938809D02*
X105595238Y-37034047D01*
%TO.C,TP9*%
X189738095Y-36462619D02*
X190309523Y-36462619D01*
X190023809Y-37462619D02*
X190023809Y-36462619D01*
X190642857Y-37462619D02*
X190642857Y-36462619D01*
X190642857Y-36462619D02*
X191023809Y-36462619D01*
X191023809Y-36462619D02*
X191119047Y-36510238D01*
X191119047Y-36510238D02*
X191166666Y-36557857D01*
X191166666Y-36557857D02*
X191214285Y-36653095D01*
X191214285Y-36653095D02*
X191214285Y-36795952D01*
X191214285Y-36795952D02*
X191166666Y-36891190D01*
X191166666Y-36891190D02*
X191119047Y-36938809D01*
X191119047Y-36938809D02*
X191023809Y-36986428D01*
X191023809Y-36986428D02*
X190642857Y-36986428D01*
X191690476Y-37462619D02*
X191880952Y-37462619D01*
X191880952Y-37462619D02*
X191976190Y-37415000D01*
X191976190Y-37415000D02*
X192023809Y-37367380D01*
X192023809Y-37367380D02*
X192119047Y-37224523D01*
X192119047Y-37224523D02*
X192166666Y-37034047D01*
X192166666Y-37034047D02*
X192166666Y-36653095D01*
X192166666Y-36653095D02*
X192119047Y-36557857D01*
X192119047Y-36557857D02*
X192071428Y-36510238D01*
X192071428Y-36510238D02*
X191976190Y-36462619D01*
X191976190Y-36462619D02*
X191785714Y-36462619D01*
X191785714Y-36462619D02*
X191690476Y-36510238D01*
X191690476Y-36510238D02*
X191642857Y-36557857D01*
X191642857Y-36557857D02*
X191595238Y-36653095D01*
X191595238Y-36653095D02*
X191595238Y-36891190D01*
X191595238Y-36891190D02*
X191642857Y-36986428D01*
X191642857Y-36986428D02*
X191690476Y-37034047D01*
X191690476Y-37034047D02*
X191785714Y-37081666D01*
X191785714Y-37081666D02*
X191976190Y-37081666D01*
X191976190Y-37081666D02*
X192071428Y-37034047D01*
X192071428Y-37034047D02*
X192119047Y-36986428D01*
X192119047Y-36986428D02*
X192166666Y-36891190D01*
D12*
%TO.C,J1*%
X135565000Y-161705000D02*
X136985000Y-161705000D01*
X135565000Y-162630000D02*
X135565000Y-161705000D01*
X135565000Y-164800000D02*
X135565000Y-166295000D01*
X135565000Y-166295000D02*
X138105000Y-166295000D01*
X136985000Y-161705000D02*
X136985000Y-161705000D01*
X136985000Y-161705000D02*
X138105000Y-161705000D01*
X138105000Y-166295000D02*
X138105000Y-168405000D01*
X159015000Y-161705000D02*
X157895000Y-161705000D01*
X159015000Y-161705000D02*
X159015000Y-161705000D01*
X160435000Y-161705000D02*
X159015000Y-161705000D01*
X160435000Y-162630000D02*
X160435000Y-161705000D01*
X160435000Y-164800000D02*
X160435000Y-166295000D01*
X160435000Y-166295000D02*
X157895000Y-166295000D01*
%TD*%
M02*
