%TF.GenerationSoftware,KiCad,Pcbnew,7.0.1*%
%TF.CreationDate,2025-05-27T16:56:48+02:00*%
%TF.ProjectId,federkontaktplatine_oben,66656465-726b-46f6-9e74-616b74706c61,rev?*%
%TF.SameCoordinates,Original*%
%TF.FileFunction,Soldermask,Top*%
%TF.FilePolarity,Negative*%
%FSLAX46Y46*%
G04 Gerber Fmt 4.6, Leading zero omitted, Abs format (unit mm)*
G04 Created by KiCad (PCBNEW 7.0.1) date 2025-05-27 16:56:48*
%MOMM*%
%LPD*%
G01*
G04 APERTURE LIST*
%ADD10C,0.010000*%
%ADD11C,3.200000*%
%ADD12R,1.000000X3.000000*%
G04 APERTURE END LIST*
%TO.C,J1*%
D10*
X104406200Y-121251200D02*
X100823800Y-121251200D01*
X100823800Y-119448800D01*
X104406200Y-119448800D01*
X104406200Y-121251200D01*
G36*
X104406200Y-121251200D02*
G01*
X100823800Y-121251200D01*
X100823800Y-119448800D01*
X104406200Y-119448800D01*
X104406200Y-121251200D01*
G37*
X107211200Y-116416200D02*
X105788800Y-116416200D01*
X105788800Y-113343800D01*
X107211200Y-113343800D01*
X107211200Y-116416200D01*
G36*
X107211200Y-116416200D02*
G01*
X105788800Y-116416200D01*
X105788800Y-113343800D01*
X107211200Y-113343800D01*
X107211200Y-116416200D01*
G37*
X110211200Y-116416200D02*
X108788800Y-116416200D01*
X108788800Y-113343800D01*
X110211200Y-113343800D01*
X110211200Y-116416200D01*
G36*
X110211200Y-116416200D02*
G01*
X108788800Y-116416200D01*
X108788800Y-113343800D01*
X110211200Y-113343800D01*
X110211200Y-116416200D01*
G37*
X113211200Y-116416200D02*
X111788800Y-116416200D01*
X111788800Y-113343800D01*
X113211200Y-113343800D01*
X113211200Y-116416200D01*
G36*
X113211200Y-116416200D02*
G01*
X111788800Y-116416200D01*
X111788800Y-113343800D01*
X113211200Y-113343800D01*
X113211200Y-116416200D01*
G37*
X116211200Y-116416200D02*
X114788800Y-116416200D01*
X114788800Y-113343800D01*
X116211200Y-113343800D01*
X116211200Y-116416200D01*
G36*
X116211200Y-116416200D02*
G01*
X114788800Y-116416200D01*
X114788800Y-113343800D01*
X116211200Y-113343800D01*
X116211200Y-116416200D01*
G37*
X119211200Y-116416200D02*
X117788800Y-116416200D01*
X117788800Y-113343800D01*
X119211200Y-113343800D01*
X119211200Y-116416200D01*
G36*
X119211200Y-116416200D02*
G01*
X117788800Y-116416200D01*
X117788800Y-113343800D01*
X119211200Y-113343800D01*
X119211200Y-116416200D01*
G37*
X122211200Y-116416200D02*
X120788800Y-116416200D01*
X120788800Y-113343800D01*
X122211200Y-113343800D01*
X122211200Y-116416200D01*
G36*
X122211200Y-116416200D02*
G01*
X120788800Y-116416200D01*
X120788800Y-113343800D01*
X122211200Y-113343800D01*
X122211200Y-116416200D01*
G37*
X125211200Y-116416200D02*
X123788800Y-116416200D01*
X123788800Y-113343800D01*
X125211200Y-113343800D01*
X125211200Y-116416200D01*
G36*
X125211200Y-116416200D02*
G01*
X123788800Y-116416200D01*
X123788800Y-113343800D01*
X125211200Y-113343800D01*
X125211200Y-116416200D01*
G37*
X128211200Y-116416200D02*
X126788800Y-116416200D01*
X126788800Y-113343800D01*
X128211200Y-113343800D01*
X128211200Y-116416200D01*
G36*
X128211200Y-116416200D02*
G01*
X126788800Y-116416200D01*
X126788800Y-113343800D01*
X128211200Y-113343800D01*
X128211200Y-116416200D01*
G37*
X131211200Y-116416200D02*
X129788800Y-116416200D01*
X129788800Y-113343800D01*
X131211200Y-113343800D01*
X131211200Y-116416200D01*
G36*
X131211200Y-116416200D02*
G01*
X129788800Y-116416200D01*
X129788800Y-113343800D01*
X131211200Y-113343800D01*
X131211200Y-116416200D01*
G37*
X134211200Y-116416200D02*
X132788800Y-116416200D01*
X132788800Y-113343800D01*
X134211200Y-113343800D01*
X134211200Y-116416200D01*
G36*
X134211200Y-116416200D02*
G01*
X132788800Y-116416200D01*
X132788800Y-113343800D01*
X134211200Y-113343800D01*
X134211200Y-116416200D01*
G37*
X139176200Y-121251200D02*
X135593800Y-121251200D01*
X135593800Y-119448800D01*
X139176200Y-119448800D01*
X139176200Y-121251200D01*
G36*
X139176200Y-121251200D02*
G01*
X135593800Y-121251200D01*
X135593800Y-119448800D01*
X139176200Y-119448800D01*
X139176200Y-121251200D01*
G37*
%TO.C,J2*%
X158906200Y-121251200D02*
X155323800Y-121251200D01*
X155323800Y-119448800D01*
X158906200Y-119448800D01*
X158906200Y-121251200D01*
G36*
X158906200Y-121251200D02*
G01*
X155323800Y-121251200D01*
X155323800Y-119448800D01*
X158906200Y-119448800D01*
X158906200Y-121251200D01*
G37*
X161711200Y-116416200D02*
X160288800Y-116416200D01*
X160288800Y-113343800D01*
X161711200Y-113343800D01*
X161711200Y-116416200D01*
G36*
X161711200Y-116416200D02*
G01*
X160288800Y-116416200D01*
X160288800Y-113343800D01*
X161711200Y-113343800D01*
X161711200Y-116416200D01*
G37*
X164711200Y-116416200D02*
X163288800Y-116416200D01*
X163288800Y-113343800D01*
X164711200Y-113343800D01*
X164711200Y-116416200D01*
G36*
X164711200Y-116416200D02*
G01*
X163288800Y-116416200D01*
X163288800Y-113343800D01*
X164711200Y-113343800D01*
X164711200Y-116416200D01*
G37*
X167711200Y-116416200D02*
X166288800Y-116416200D01*
X166288800Y-113343800D01*
X167711200Y-113343800D01*
X167711200Y-116416200D01*
G36*
X167711200Y-116416200D02*
G01*
X166288800Y-116416200D01*
X166288800Y-113343800D01*
X167711200Y-113343800D01*
X167711200Y-116416200D01*
G37*
X170711200Y-116416200D02*
X169288800Y-116416200D01*
X169288800Y-113343800D01*
X170711200Y-113343800D01*
X170711200Y-116416200D01*
G36*
X170711200Y-116416200D02*
G01*
X169288800Y-116416200D01*
X169288800Y-113343800D01*
X170711200Y-113343800D01*
X170711200Y-116416200D01*
G37*
X173711200Y-116416200D02*
X172288800Y-116416200D01*
X172288800Y-113343800D01*
X173711200Y-113343800D01*
X173711200Y-116416200D01*
G36*
X173711200Y-116416200D02*
G01*
X172288800Y-116416200D01*
X172288800Y-113343800D01*
X173711200Y-113343800D01*
X173711200Y-116416200D01*
G37*
X176711200Y-116416200D02*
X175288800Y-116416200D01*
X175288800Y-113343800D01*
X176711200Y-113343800D01*
X176711200Y-116416200D01*
G36*
X176711200Y-116416200D02*
G01*
X175288800Y-116416200D01*
X175288800Y-113343800D01*
X176711200Y-113343800D01*
X176711200Y-116416200D01*
G37*
X179711200Y-116416200D02*
X178288800Y-116416200D01*
X178288800Y-113343800D01*
X179711200Y-113343800D01*
X179711200Y-116416200D01*
G36*
X179711200Y-116416200D02*
G01*
X178288800Y-116416200D01*
X178288800Y-113343800D01*
X179711200Y-113343800D01*
X179711200Y-116416200D01*
G37*
X184676200Y-121251200D02*
X181093800Y-121251200D01*
X181093800Y-119448800D01*
X184676200Y-119448800D01*
X184676200Y-121251200D01*
G36*
X184676200Y-121251200D02*
G01*
X181093800Y-121251200D01*
X181093800Y-119448800D01*
X184676200Y-119448800D01*
X184676200Y-121251200D01*
G37*
%TD*%
D11*
%TO.C,H11*%
X148000000Y-78750000D03*
%TD*%
%TO.C,H8*%
X252500000Y-38750000D03*
%TD*%
D12*
%TO.C,J4*%
X180930000Y-107520000D03*
X180930000Y-102480000D03*
X178390000Y-107520000D03*
X178390000Y-102480000D03*
X175850000Y-107520000D03*
X175850000Y-102480000D03*
X173310000Y-107520000D03*
X173310000Y-102480000D03*
X170770000Y-107520000D03*
X170770000Y-102480000D03*
X168230000Y-107520000D03*
X168230000Y-102480000D03*
X165690000Y-107520000D03*
X165690000Y-102480000D03*
X163150000Y-107520000D03*
X163150000Y-102480000D03*
X160610000Y-107520000D03*
X160610000Y-102480000D03*
X158070000Y-107520000D03*
X158070000Y-102480000D03*
%TD*%
D11*
%TO.C,H12*%
X252500000Y-78750000D03*
%TD*%
%TO.C,H6*%
X43500000Y-78750000D03*
%TD*%
%TO.C,H9*%
X252500000Y-118750000D03*
%TD*%
%TO.C,H7*%
X148000000Y-118750000D03*
%TD*%
%TO.C,H10*%
X148000000Y-38750000D03*
%TD*%
%TO.C,H4*%
X43500000Y-38750000D03*
%TD*%
%TO.C,H5*%
X43500000Y-118750000D03*
%TD*%
%TO.C,H3*%
X130500000Y-50000000D03*
%TD*%
D12*
%TO.C,J3*%
X130930000Y-107520000D03*
X130930000Y-102480000D03*
X128390000Y-107520000D03*
X128390000Y-102480000D03*
X125850000Y-107520000D03*
X125850000Y-102480000D03*
X123310000Y-107520000D03*
X123310000Y-102480000D03*
X120770000Y-107520000D03*
X120770000Y-102480000D03*
X118230000Y-107520000D03*
X118230000Y-102480000D03*
X115690000Y-107520000D03*
X115690000Y-102480000D03*
X113150000Y-107520000D03*
X113150000Y-102480000D03*
X110610000Y-107520000D03*
X110610000Y-102480000D03*
X108070000Y-107520000D03*
X108070000Y-102480000D03*
%TD*%
D11*
%TO.C,H2*%
X190500000Y-50000000D03*
%TD*%
%TO.C,H1*%
X145500000Y-105000000D03*
%TD*%
M02*
