%TF.GenerationSoftware,KiCad,Pcbnew,7.0.1*%
%TF.CreationDate,2025-05-26T14:03:02+02:00*%
%TF.ProjectId,federkontaktplatine_oben,66656465-726b-46f6-9e74-616b74706c61,rev?*%
%TF.SameCoordinates,Original*%
%TF.FileFunction,Paste,Top*%
%TF.FilePolarity,Positive*%
%FSLAX46Y46*%
G04 Gerber Fmt 4.6, Leading zero omitted, Abs format (unit mm)*
G04 Created by KiCad (PCBNEW 7.0.1) date 2025-05-26 14:03:02*
%MOMM*%
%LPD*%
G01*
G04 APERTURE LIST*
%ADD10R,1.000000X3.000000*%
%ADD11R,1.270000X2.920000*%
%ADD12R,3.430000X1.650000*%
G04 APERTURE END LIST*
D10*
%TO.C,J4*%
X180930000Y-107520000D03*
X180930000Y-102480000D03*
X178390000Y-107520000D03*
X178390000Y-102480000D03*
X175850000Y-107520000D03*
X175850000Y-102480000D03*
X173310000Y-107520000D03*
X173310000Y-102480000D03*
X170770000Y-107520000D03*
X170770000Y-102480000D03*
X168230000Y-107520000D03*
X168230000Y-102480000D03*
X165690000Y-107520000D03*
X165690000Y-102480000D03*
X163150000Y-107520000D03*
X163150000Y-102480000D03*
X160610000Y-107520000D03*
X160610000Y-102480000D03*
X158070000Y-107520000D03*
X158070000Y-102480000D03*
%TD*%
%TO.C,J3*%
X130930000Y-107520000D03*
X130930000Y-102480000D03*
X128390000Y-107520000D03*
X128390000Y-102480000D03*
X125850000Y-107520000D03*
X125850000Y-102480000D03*
X123310000Y-107520000D03*
X123310000Y-102480000D03*
X120770000Y-107520000D03*
X120770000Y-102480000D03*
X118230000Y-107520000D03*
X118230000Y-102480000D03*
X115690000Y-107520000D03*
X115690000Y-102480000D03*
X113150000Y-107520000D03*
X113150000Y-102480000D03*
X110610000Y-107520000D03*
X110610000Y-102480000D03*
X108070000Y-107520000D03*
X108070000Y-102480000D03*
%TD*%
D11*
%TO.C,J1*%
X133500000Y-114880000D03*
X130500000Y-114880000D03*
X127500000Y-114880000D03*
X124500000Y-114880000D03*
X121500000Y-114880000D03*
X118500000Y-114880000D03*
X115500000Y-114880000D03*
X112500000Y-114880000D03*
X109500000Y-114880000D03*
X106500000Y-114880000D03*
D12*
X137385000Y-120350000D03*
X102615000Y-120350000D03*
%TD*%
D11*
%TO.C,J2*%
X179000000Y-114880000D03*
X176000000Y-114880000D03*
X173000000Y-114880000D03*
X170000000Y-114880000D03*
X167000000Y-114880000D03*
X164000000Y-114880000D03*
X161000000Y-114880000D03*
D12*
X182885000Y-120350000D03*
X157115000Y-120350000D03*
%TD*%
M02*
